<?xml version="1.0" standalone="no"?>
<!DOCTYPE svg PUBLIC "-//W3C//DTD SVG 20010904//EN"
 "http://www.w3.org/TR/2001/REC-SVG-20010904/DTD/svg10.dtd">
<svg version="1.0" xmlns="http://www.w3.org/2000/svg"
 width="365.000000pt" height="291.000000pt" viewBox="0 0 365.000000 291.000000"
 preserveAspectRatio="xMidYMid meet">

<g transform="translate(0.000000,291.000000) scale(0.100000,-0.100000)"
fill="#000000" stroke="none">
<path d="M520 1390 l0 -1210 705 0 705 0 0 1210 0 1210 -705 0 -705 0 0 -1210z
m1340 0 l0 -1150 -640 0 -640 0 0 1143 c0 629 3 1147 7 1150 3 4 291 7 640 7
l633 0 0 -1150z"/>
<path d="M920 2198 c0 -32 63 -1309 76 -1536 l6 -113 66 3 66 3 12 70 c6 39
33 208 60 378 40 250 52 307 64 305 15 -3 14 3 100 -545 l34 -213 68 0 c48 0
68 4 68 13 0 6 13 291 29 632 17 341 33 690 36 775 3 85 8 179 11 208 l6 53
-69 -3 -68 -3 -27 -375 c-41 -565 -38 -540 -53 -540 -16 0 -19 33 -45 495 -12
198 -23 375 -26 393 l-5 32 -63 0 -64 0 -6 -87 c-8 -102 -46 -777 -46 -810 0
-14 -6 -23 -15 -23 -8 0 -17 10 -19 23 -3 12 -17 195 -31 407 -14 212 -28 409
-31 438 l-6 52 -64 0 -64 0 0 -32z"/>
<path d="M2360 2158 c0 -69 31 -692 35 -705 7 -20 53 -16 59 5 2 9 15 86 27
170 13 83 26 152 31 152 8 0 10 -11 41 -200 22 -133 22 -135 49 -138 35 -4 34
-7 48 338 6 151 13 308 16 348 l6 72 -30 0 c-35 0 -32 14 -52 -265 -6 -76 -12
-141 -14 -143 -8 -7 -15 56 -21 178 -3 69 -8 149 -11 178 -6 49 -8 52 -34 52
l-27 0 -7 -122 c-11 -205 -18 -288 -26 -288 -4 0 -12 82 -19 183 -15 227 -15
227 -46 227 -23 0 -25 -4 -25 -42z"/>
<path d="M2740 1820 l0 -381 78 3 77 3 0 30 c0 29 -2 30 -47 33 l-48 3 0 155
0 154 50 0 c49 0 50 1 50 30 0 29 -1 30 -50 30 l-50 0 0 124 0 125 48 3 c45 3
47 4 50 36 l3 32 -80 0 -81 0 0 -380z"/>
<path d="M2330 895 l0 -375 30 0 30 0 0 185 0 185 39 0 c34 0 42 5 60 34 18
29 21 49 21 161 0 112 -2 130 -21 156 -19 27 -25 29 -90 29 l-69 0 0 -375z
m130 180 l0 -125 -35 0 -35 0 0 125 0 125 35 0 35 0 0 -125z"/>
<path d="M2650 1258 c0 -7 -16 -168 -35 -357 -19 -189 -35 -352 -35 -362 0
-14 7 -19 29 -19 l28 0 9 98 c9 95 10 97 35 100 26 3 27 2 33 -70 11 -118 14
-128 42 -128 30 0 31 -19 -6 358 -41 423 -35 392 -71 392 -16 0 -29 -5 -29
-12z m40 -332 c0 -12 3 -51 6 -85 7 -59 6 -61 -16 -61 -21 0 -22 3 -16 46 3
26 6 64 6 85 0 22 5 39 10 39 6 0 10 -11 10 -24z"/>
<path d="M2852 893 l3 -378 66 -3 c65 -3 66 -2 92 32 l27 35 0 310 c0 306 0
312 -22 346 -23 34 -24 35 -96 35 l-72 0 2 -377z m128 2 l0 -315 -35 0 -35 0
0 315 0 315 35 0 35 0 0 -315z"/>
<path d="M3125 1257 c-3 -6 -4 -176 -3 -377 l3 -365 75 0 75 0 3 33 3 32 -50
0 -51 0 0 155 0 155 50 0 c49 0 50 1 50 29 0 28 -2 30 -47 33 l-48 3 0 125 0
125 48 3 c45 3 47 5 47 33 l0 29 -75 0 c-51 0 -77 -4 -80 -13z"/>
<path d="M3340 895 l0 -375 75 0 75 0 0 30 c0 29 -1 30 -50 30 l-50 0 0 345 0
345 -25 0 -25 0 0 -375z"/>
</g>
</svg>
